<?xml version="1.0" encoding="UTF-8"?>
<svg width="333px" height="431px" viewBox="0 0 333 431" version="1.1" xmlns="http://www.w3.org/2000/svg" xmlns:xlink="http://www.w3.org/1999/xlink">
    <!-- Generator: Sketch 57.1 (83088) - https://sketch.com -->
    <title>Group 23</title>
    <desc>Created with Sketch.</desc>
    <defs>
        <polygon id="path-1" points="13.1995657 46.6901166 43.9623029 37.8097245 35.7250401 4.69011664 4.96230287 13.5705088"></polygon>
    </defs>
    <g id="Page-1" stroke="none" stroke-width="1" fill="none" fill-rule="evenodd">
        <g id="Artboard" transform="translate(-1029.000000, -42.000000)">
            <g id="Group-23" transform="translate(1015.000000, 41.000000)">
                <g id="Group-2" transform="translate(37.458388, 406.983582) rotate(-15.000000) translate(-37.458388, -406.983582) translate(7.458388, 375.983582)">
                    <path d="M51.0015878,46.8890884 L19.3448363,55.9004522 C17.5107255,56.4225475 15.6493992,55.2779501 15.156852,53.3251081 L6.65548789,19.6190559 C6.16294073,17.6662139 7.23619159,15.6862642 9.07030234,15.1641689 L40.7270539,6.15280508 C42.5611646,5.63070984 44.422491,6.77530722 44.9150381,8.72814918 L53.4164022,42.4342014 C53.9089494,44.3870434 52.8356985,46.3669932 51.0015878,46.8890884 Z" id="Path" fill="#DFEDFF" fill-rule="nonzero" transform="translate(30.035945, 31.026629) rotate(15.000000) translate(-30.035945, -31.026629) "></path>
                    <g id="Group-4" transform="translate(5.573642, 5.336512)">
                        <mask id="mask-2" fill="white">
                            <use xlink:href="#path-1"></use>
                        </mask>
                        <use id="Path" fill="#FFFFFF" fill-rule="nonzero" transform="translate(24.462303, 25.690117) rotate(15.000000) translate(-24.462303, -25.690117) " xlink:href="#path-1"></use>
                        <g id="Group-3" mask="url(#mask-2)" fill="#FFFFFF">
                            <g transform="translate(329.515849, -334.435650)">
                                <path d="M22.1549798,59.3988847 C19.2382778,63.7936444 12.9434747,65.0570219 8.09054406,62.2209947 C3.24585266,59.3865138 1.67215188,53.52503 4.58885384,49.1318166 C7.50555581,44.7370568 13.8085982,43.4744525 18.6532896,46.3097066 C23.5062203,49.1449606 25.0716818,55.0056713 22.1549798,59.3988847 Z" id="Fill-68"></path>
                                <path d="M70.7183146,73.077446 C67.6546616,77.9226621 61.3091006,79.4846853 56.5559925,76.5667337 C51.7948008,73.6487821 50.4286864,67.3553325 53.4923394,62.5101164 C56.5559925,57.6641046 62.9015535,56.1028771 67.6627451,59.0208287 C72.4158532,61.9387804 73.7900511,68.2314342 70.7183146,73.077446 Z" id="Fill-69"></path>
                            </g>
                        </g>
                    </g>
                </g>
                <g id="Group-20" transform="translate(247.355161, 256.000000)" fill="#DDEEDD" fill-rule="nonzero">
                    <path d="M50.0292226,98.7018122 C22.843364,98.7018122 0.644839171,76.6160602 0.644839171,49.3509061 C0.644839171,22.085752 22.7455732,1.42108547e-14 50.0292226,1.42108547e-14 C77.2150813,1.42108547e-14 99.4136061,22.085752 99.4136061,49.3509061 C99.4136061,76.6160602 77.2150813,98.7018122 50.0292226,98.7018122 Z" id="Path"></path>
                </g>
                <g id="Group-12" transform="translate(17.000000, 0.997240)" fill-rule="nonzero">
                    <path d="M52.6967346,51.9091677 L4.34312438,42.9349132 C2.41449035,42.5667386 0.853215186,41.1860841 0.256257035,39.3452114 C-0.340701115,37.5043387 0.118497462,35.4333568 1.49609319,34.0527023 L32.4919972,1.65334243 C33.7318333,0.364731527 35.5227078,-0.233552107 37.2676624,0.088600619 C39.012617,0.410753345 40.4820524,1.60732061 41.2167702,3.26410606 L58.5744764,44.6377204 C59.355114,46.4325714 59.033675,48.5035532 57.8397587,50.0222732 C56.5540026,51.5409931 54.5794488,52.2773422 52.6967346,51.9091677 Z" id="Path" fill="#FFE9DF"></path>
                    <path d="M36.9990712,5.02510919 C36.860698,4.98002799 36.5839517,4.98002799 36.3533297,5.25051515 L5.21936434,36.9876748 C4.94261798,37.2581619 4.98874237,37.5286491 5.03486676,37.7089739 C5.08099116,37.8442174 5.21936434,38.1147046 5.58835948,38.204867 L54.1573455,46.9956995 C54.5263406,47.0407807 54.7569626,46.860456 54.8492114,46.7252124 C54.9414601,46.5899688 55.0798333,46.3645628 54.9414601,46.0039133 L37.5064395,5.47592111 C37.4141907,5.11527157 37.1374444,5.02510919 36.9990712,5.02510919 Z" id="Path" fill="#FFFFFF"></path>
                </g>
                <g id="Group-22" transform="translate(109.881115, 130.747512) rotate(29.000000) translate(-109.881115, -130.747512) translate(60.881115, 84.747512)" fill="#FFE7F2" fill-rule="nonzero">
                    <path d="M49.1742499,87.478001 L1.62968085,14.7686741 C-0.233223902,11.8473172 -0.39521562,8.19562105 1.22470156,5.19311536 C2.84461873,2.19060967 6.00345722,0.243038415 9.48627915,0.243038415 L88.5382373,0.405336019 C91.6970758,0.405336019 94.6129267,2.02831207 96.3948356,4.62507375 C98.0957486,7.30298423 98.4197321,10.6300851 97.1237983,13.4702932 L65.6164093,86.0984714 C64.2394797,89.2632747 61.2426329,91.3731436 57.8408068,91.6977388 C54.3579849,91.9411852 51.0371547,90.3993579 49.1742499,87.478001 Z" id="Path"></path>
                </g>
            </g>
        </g>
    </g>
</svg>